<svg xmlns="http://www.w3.org/2000/svg">
  <symbol id="eye-dropper" viewBox="0 0 512 512" fill="rgb(var(--color))">
    <g>
      <path opacity="var(--alpha, 0.5)"
        d="M198.7 180L55.4 323.3c-15 15-23.4 35.4-23.4 56.6v42.4L5.4 462.2c-8.5 12.7-6.8 29.6 4 40.4s27.7 12.5 40.4 4L89.7 480h42.4c21.2 0 41.6-8.4 56.6-23.4L332 313.3 286.7 268 143.4 411.3c-3 3-7.1 4.7-11.3 4.7H96V379.9c0-4.2 1.7-8.3 4.7-11.3L244 225.3 198.7 180z" />
      <path
        d="M240.1 130.8L341.6 29.2c39-39 102.2-39 141.1 0s39 102.2 0 141.1L381.2 271.9l9.4 9.4c12.5 12.5 12.5 32.8 0 45.3s-32.8 12.5-45.3 0l-160-160c-12.5-12.5-12.5-32.8 0-45.3s32.8-12.5 45.3 0l9.4 9.4z" />
    </g>
  </symbol>
  <symbol id="copy" viewBox="0 0 448 512" fill="rgb(var(--color))">
    <g>
      <path opacity="var(--alpha, 0.5)"
        d="M128 128H48C21.5 128 0 149.5 0 176V464C0 490.5 21.5 512 48 512H272C298.5 512 320 490.5 320 464V416H256H203C181.451 416 203.5 416 179.5 416C155.5 416 128.5 395 128.5 366C128.5 337 128 329.744 128 246.5C128 119 128 192 128 192V128Z" />
      <path
        d="M160 48c0-26.5 21.5-48 48-48H332.1c12.7 0 24.9 5.1 33.9 14.1l67.9 67.9c9 9 14.1 21.2 14.1 33.9V336c0 26.5-21.5 48-48 48H208c-26.5 0-48-21.5-48-48V48z" />
    </g>
  </symbol>
  <symbol id="clipboard-check" viewBox="0 0 384 512" fill="rgb(var(--color))">
    <g>
      <path opacity="var(--alpha, 0.5)"
        d="M113.2 66.3c.1-.8 .3-1.6 .4-2.3H64C28.7 64 0 92.7 0 128V448c0 35.3 28.7 64 64 64H320c35.3 0 64-28.7 64-64V128c0-35.3-28.7-64-64-64H270.4c.2 .8 .3 1.6 .4 2.3C290.1 72.6 304 90.7 304 112v24c0 13.3-10.7 24-24 24H192 104c-13.3 0-24-10.7-24-24V112c0-21.3 13.9-39.4 33.2-45.7zM305 273L177 401c-9.4 9.4-24.6 9.4-33.9 0L79 337c-9.4-9.4-9.4-24.6 0-33.9s24.6-9.4 33.9 0l47 47L271 239c9.4-9.4 24.6-9.4 33.9 0s9.4 24.6 0 33.9z" />
      <path
        d="M113.2 66.3C93.9 72.6 80 90.7 80 112v24c0 13.3 10.7 24 24 24h88 88c13.3 0 24-10.7 24-24V112c0-21.3-13.9-39.4-33.2-45.7C264.4 28.7 231.5 0 192 0s-72.4 28.7-78.8 66.3zM168 80a24 24 0 1 1 48 0 24 24 0 1 1 -48 0zM305 273c9.4-9.4 9.4-24.6 0-33.9s-24.6-9.4-33.9 0l-111 111-47-47c-9.4-9.4-24.6-9.4-33.9 0s-9.4 24.6 0 33.9l64 64c9.4 9.4 24.6 9.4 33.9 0L305 273z" />
    </g>
  </symbol>
  <symbol id="trash" viewBox="0 0 384 512" fill="rgb(var(--color))">
    <g>
      <path opacity="var(--alpha, 0.5)"
        d="M394.6 466.8L416 96H32L53.4 466.8c1.5 25.4 22.5 45.2 47.9 45.2H346.7c25.4 0 46.5-19.8 47.9-45.2z" />
      <path
        d="M163.8 0c-12.1 0-23.2 6.8-28.6 17.7L128 32H32C14.3 32 0 46.3 0 64S14.3 96 32 96H416c17.7 0 32-14.3 32-32s-14.3-32-32-32H320l-7.2-14.3C307.4 6.8 296.3 0 284.2 0H163.8z" />
    </g>
  </symbol>
</svg>